<svg version="1.1" id="Layer_1" xmlns="http://www.w3.org/2000/svg" xmlns:xlink="http://www.w3.org/1999/xlink" x="0px" y="0px"
	 width="100%" viewBox="0 0 1024 1024" enable-background="new 0 0 1024 1024" xml:space="preserve">
<path fill="#000000" opacity="1.000000" stroke="none" 
	d="
M164.000519,150.693207 
	C178.331757,150.695786 192.163361,150.649368 205.994446,150.711929 
	C232.527939,150.831955 255.174240,167.059647 263.764496,192.137848 
	C271.100098,213.553253 278.475647,234.956970 285.524139,256.467224 
	C287.078247,261.210083 289.319305,262.793671 294.372070,262.788147 
	C428.852783,262.641174 563.333679,262.668976 697.814514,262.668884 
	C753.306641,262.668823 808.798706,262.662323 864.290833,262.680328 
	C886.562195,262.687531 899.239380,280.348663 892.433960,301.671631 
	C865.863892,384.921265 839.318298,468.178680 812.799988,551.444824 
	C804.270935,578.225647 781.245056,595.246521 753.142334,595.253357 
	C627.826843,595.283813 502.511353,595.273865 377.195862,595.301758 
	C358.048157,595.306030 342.748932,606.801697 338.325256,624.356018 
	C332.070404,649.176941 350.325409,672.754517 376.066956,672.784485 
	C448.556549,672.868958 521.046265,672.829834 593.535950,672.833984 
	C668.358643,672.838257 743.181274,672.835571 818.003967,672.839539 
	C819.669922,672.839661 821.345032,672.778931 823.000427,672.923279 
	C832.987122,673.794067 839.568481,680.689575 839.527527,690.173279 
	C839.487305,699.490479 832.590088,706.466064 822.696777,707.160400 
	C821.369263,707.253540 820.031677,707.216187 818.698730,707.216309 
	C671.719666,707.227966 524.740662,707.257446 377.761597,707.232910 
	C341.047913,707.226807 312.050598,683.748901 304.365906,648.023926 
	C297.314758,615.244263 315.917267,579.895386 346.924774,567.102905 
	C354.983795,563.778015 354.453613,565.110779 351.686737,556.950073 
	C327.948517,486.936096 304.173737,416.934509 280.413055,346.928131 
	C264.573090,300.258636 248.721954,253.592941 232.924713,206.908981 
	C231.198990,201.809097 229.299194,196.826111 225.371246,192.999252 
	C219.886688,187.655899 213.352768,184.925491 205.554993,184.977051 
	C187.391785,185.097183 169.227142,185.002335 151.063080,184.991074 
	C144.005203,184.986710 137.856461,183.085785 134.052704,176.563690 
	C127.377007,165.117249 134.761368,151.387527 148.007111,150.759583 
	C153.161087,150.515259 158.335541,150.702698 164.000519,150.693207 
M358.559692,471.021484 
	C368.147980,499.229126 377.799988,527.415466 387.247253,555.670227 
	C388.484344,559.370117 390.066040,560.980347 394.224670,560.976624 
	C513.857483,560.870300 633.490356,560.908020 753.123230,560.877686 
	C766.898071,560.874207 776.075317,554.084290 780.326660,540.950684 
	C784.580811,527.808472 788.706726,514.624695 792.903931,501.463989 
	C813.638489,436.448425 834.388306,371.437683 855.081421,306.408905 
	C855.967346,303.624908 857.350220,300.889343 857.087219,297.341217 
	C671.430908,297.341217 485.945007,297.341217 299.539948,297.341217 
	C319.262238,355.361908 338.792114,412.816528 358.559692,471.021484 
z"/>
<path fill="#000000" opacity="1.000000" stroke="none" 
	d="
M494.335938,808.061218 
	C486.559052,849.451477 453.105927,876.424866 411.483826,875.277527 
	C374.882263,874.268494 341.717896,843.568665 336.510986,807.404785 
	C330.275513,764.096924 359.940826,721.654724 405.920868,716.130676 
	C452.025391,710.591614 489.031555,744.106628 494.456696,783.785950 
	C495.548187,791.768860 495.792236,799.681458 494.335938,808.061218 
M460.198730,805.623657 
	C461.095062,800.213928 461.649506,794.894287 460.920227,789.302429 
	C457.553802,763.489380 433.393311,745.901367 407.042786,750.423218 
	C382.509735,754.633301 365.519592,779.936951 370.738556,804.491760 
	C375.192047,825.445129 392.931152,840.451233 413.809021,840.926636 
	C436.015900,841.432312 454.251160,827.795288 460.198730,805.623657 
z"/>
<path fill="#000000" opacity="1.000000" stroke="none" 
	d="
M693.253662,863.817200 
	C665.498962,845.515320 651.703308,819.890503 655.252197,787.276245 
	C659.029053,752.567078 678.939453,729.143555 712.460144,718.765686 
	C758.393555,704.544861 806.861877,736.833130 813.543823,784.592957 
	C820.187073,832.076111 782.032898,878.281311 728.949097,875.148193 
	C716.327942,874.403320 704.427673,870.679321 693.253662,863.817200 
M762.761902,831.291382 
	C775.355957,820.727112 781.363770,807.418884 779.863281,790.852478 
	C777.458496,764.302185 752.748108,745.694885 726.037048,750.421021 
	C700.252380,754.983276 683.437439,781.358704 690.093140,806.628052 
	C698.596130,838.910706 736.329651,851.333008 762.761902,831.291382 
z"/>
</svg>